<svg width="42" height="42" viewBox="0 0 42 42" fill="none" xmlns="http://www.w3.org/2000/svg">
<g clip-path="url(#clip0_4_27)">
<path d="M38.615 12.9655L25.0805 0.543047C24.6359 0.187441 24.1048 0 23.5448 0C22.985 0 22.4527 0.187441 22.0082 0.543047L8.47505 12.9284C7.41438 13.7754 7.23851 15.3225 8.09048 16.3863C8.93483 17.4437 10.4838 17.6238 11.5484 16.7709L23.5448 5.69797L35.5439 16.8092C36.5342 17.6067 38.1943 17.4347 38.9994 16.4223C39.8502 15.3629 39.6767 13.8134 38.615 12.9655Z" fill="white"/>
<path d="M35.8485 0.00366211H30.927C30.247 0.00366211 29.6966 0.553928 29.6966 1.23405V1.42813L37.0788 8.23689V1.23405C37.0789 0.553928 36.5286 0.00366211 35.8485 0.00366211Z" fill="white"/>
<path d="M3.85909 19.7715H1.23434C0.5543 19.7715 0.00395203 20.3218 0.00395203 21.0019V40.7697C0.00395203 41.4497 0.554218 42.0001 1.23434 42.0001H3.85909C5.89445 42.0001 7.55017 40.3444 7.55017 38.309V23.4626C7.55017 21.4272 5.89454 19.7715 3.85909 19.7715Z" fill="white"/>
<path d="M40.9915 22.6997C39.9825 21.9615 38.58 22.1092 37.7433 23.0196L31.0994 31.2877C30.6318 31.7798 29.7459 32.0751 29.2784 32.0751H18.6234C17.9343 32.0751 17.393 31.5338 17.393 30.8447C17.393 30.1555 17.9342 29.6143 18.6234 29.6143C24.1354 29.6143 22.3391 29.6143 28.4663 29.6143C29.8198 29.6143 30.927 28.507 30.927 27.1536C30.927 25.8002 29.8197 24.6929 28.4663 24.6929C22.688 24.6929 28.1997 24.6929 22.0192 24.6929C21.4061 24.6929 21.1002 24.304 20.6166 23.8808C19.8784 23.2165 19.0417 22.7243 18.1805 22.3798C15.514 21.2909 12.4328 21.6204 10.0109 23.3047C10.0109 27.7848 10.0109 34.4604 10.0109 39.5393H28.4664C30.7795 39.5393 32.9942 38.4319 34.3722 36.5864L41.5083 26.1693C42.3203 25.0866 42.0988 23.5117 40.9915 22.6997Z" fill="white"/>
<path d="M23.5425 9.04901L12.4716 19.2683V19.6022C13.2838 19.415 14.1117 19.2884 14.9587 19.2884C16.3922 19.2884 17.7883 19.5624 19.11 20.1018C19.3706 20.2061 19.6043 20.3536 19.8537 20.4763V18.5411C19.8537 17.861 20.4039 17.3107 21.0841 17.3107H26.0055C26.6856 17.3107 27.2359 17.861 27.2359 18.5411V22.2322H28.4664C30.4405 22.2322 32.1466 23.4 32.93 25.0809L34.6182 22.9802V19.2976L23.5425 9.04901Z" fill="white"/>
<path d="M22.3145 19.7715V22.0986L22.4623 22.2323H24.7753V19.7715H22.3145Z" fill="white"/>
</g>
<defs>
<clipPath id="clip0_4_27">
<rect width="42" height="42" fill="white"/>
</clipPath>
</defs>
</svg>
