<svg width="19" height="25" viewBox="0 0 19 25" fill="none" xmlns="http://www.w3.org/2000/svg">
<path d="M9.5 0.998627C4.25303 0.998627 0 4.96963 0 9.86738C0 12.7747 3.34721 18.2943 6.06775 22.3004C7.88986 24.9834 11.1101 24.9834 12.9323 22.3004C15.6528 18.2938 19 12.7747 19 9.86738C19 4.96906 14.747 0.998627 9.5 0.998627ZM9.5 14.038C6.891 14.038 4.77557 12.0631 4.77557 9.6275C4.77557 7.19185 6.891 5.21699 9.5 5.21699C12.109 5.21699 14.2244 7.19185 14.2244 9.6275C14.2244 12.0631 12.109 14.038 9.5 14.038Z" fill="#0095DA"/>
</svg>
