<svg width="34" height="34" viewBox="0 0 34 34" fill="none" xmlns="http://www.w3.org/2000/svg">
<g clip-path="url(#clip0_15_321)">
<path d="M20.3056 11.8586C22.1137 12.3432 23.1907 14.2085 22.7062 16.0167C22.5683 16.5315 22.6391 17.0692 22.9056 17.5307C23.172 17.9922 23.6022 18.3223 24.117 18.4603C24.2894 18.5064 24.4624 18.5285 24.633 18.5285C25.5139 18.5285 26.3221 17.9398 26.5606 17.0494C27.6146 13.1159 25.2719 9.05829 21.3384 8.00428C20.2755 7.71954 19.1796 8.35236 18.8947 9.41507C18.61 10.4776 19.243 11.5738 20.3056 11.8586ZM20.1776 9.75884C20.2237 9.58665 20.3341 9.44283 20.4885 9.35371C20.5913 9.29435 20.7054 9.26407 20.8209 9.26407C20.8789 9.26407 20.9373 9.27171 20.9948 9.28711C24.2209 10.1516 26.1424 13.4796 25.2779 16.7058C25.1827 17.0611 24.816 17.2727 24.4608 17.1775C24.2887 17.1314 24.1448 17.021 24.0557 16.8667C23.9666 16.7124 23.943 16.5326 23.9891 16.3604C24.663 13.8449 23.1649 11.25 20.6494 10.5759C20.2941 10.4806 20.0824 10.1141 20.1776 9.75884Z" fill="white"/>
<path d="M22.7334 2.79774C21.671 2.51307 20.5746 3.14589 20.2898 4.20859C20.1519 4.72334 20.2226 5.26107 20.4891 5.72257C20.7556 6.18413 21.1859 6.51422 21.7006 6.65214C26.3796 7.90595 29.1663 12.7327 27.9126 17.4117C27.7747 17.9265 27.8455 18.4642 28.112 18.9257C28.3784 19.3872 28.8086 19.7174 29.3234 19.8553C29.4957 19.9014 29.6688 19.9235 29.8394 19.9235C30.7202 19.9235 31.5284 19.3348 31.767 18.4445C33.5902 11.64 29.5378 4.62095 22.7334 2.79774ZM30.4843 18.1007C30.3891 18.456 30.0227 18.6677 29.6671 18.5724C29.495 18.5262 29.3512 18.4159 29.2621 18.2616C29.2621 18.2616 29.2621 18.2616 29.2621 18.2615C29.173 18.1072 29.1493 17.9274 29.1954 17.7553C30.6386 12.3689 27.4307 6.81257 22.0443 5.36924C21.689 5.27402 21.4774 4.90748 21.5726 4.55223C21.6524 4.25448 21.9227 4.05766 22.2172 4.05766C22.2741 4.05766 22.3321 4.06503 22.3898 4.08044C28.4867 5.71427 32.1179 12.0036 30.4843 18.1007Z" fill="white"/>
<path d="M24.9228 23.166C24.0415 21.6397 22.083 21.1147 20.5566 21.996L17.8528 23.557C17.7256 23.6305 17.5773 23.6502 17.435 23.612C17.2929 23.5739 17.1741 23.4828 17.1006 23.3554L11.0138 12.8126C10.9403 12.6852 10.9207 12.5369 10.9588 12.3948C10.9968 12.2527 11.0879 12.1339 11.2153 12.0604L13.919 10.4994C15.4453 9.6182 15.9701 7.65952 15.089 6.13326L12.4702 1.59737C11.589 0.0710473 9.63034 -0.453665 8.10401 0.42743L7.18547 0.957786C2.03575 3.93096 0.265064 10.5393 3.23817 15.689L5.47527 19.5637C5.65861 19.8813 6.06466 19.9901 6.38233 19.8067C6.69993 19.6234 6.80876 19.2173 6.62536 18.8997L4.38833 15.025C2.25488 11.3298 2.90768 6.77836 5.68968 3.81787L10.0366 11.3469C9.86965 11.5506 9.74614 11.7891 9.67596 12.0511C9.54607 12.5359 9.61274 13.0421 9.86368 13.4767L15.9505 24.0195C16.2014 24.454 16.6065 24.7649 17.0913 24.8948C17.3533 24.9651 17.6215 24.9774 17.8814 24.9346L22.2027 32.4193C20.6988 32.7757 19.121 32.7562 17.5861 32.345C15.1464 31.6912 13.1072 30.1266 11.8444 27.9392L9.61334 24.0749C9.42994 23.7572 9.02389 23.6484 8.70628 23.8318C8.38868 24.0152 8.27985 24.4213 8.46325 24.7389L10.6943 28.6032C12.1345 31.0978 14.4601 32.8822 17.2424 33.6277C18.1715 33.8767 19.1143 33.9999 20.0511 33.9999C21.9196 33.9999 23.7639 33.5097 25.4256 32.5504L26.3441 32.0201C27.0835 31.5932 27.6124 30.9039 27.8333 30.0793C28.0543 29.2546 27.9409 28.3932 27.514 27.6539L24.9228 23.166ZM7.84942 2.10794L8.76797 1.57759C9.20012 1.32805 9.70365 1.26184 10.1856 1.39093C10.6676 1.52008 11.0705 1.82925 11.32 2.2614L13.9388 6.79729C14.4538 7.6894 14.1471 8.83425 13.255 9.34933L11.1263 10.5783L6.69103 2.89621C7.05213 2.60935 7.43833 2.34533 7.84942 2.10794ZM26.5504 29.7356C26.4213 30.2176 26.112 30.6205 25.68 30.87L24.7614 31.4004C24.3526 31.6364 23.9312 31.84 23.5004 32.0108L19.092 24.3752L21.2207 23.1462C22.1129 22.6312 23.2577 22.9379 23.7727 23.83L26.3638 28.318C26.6133 28.7501 26.6796 29.2536 26.5504 29.7356Z" fill="white"/>
<path d="M7.55111 21.1513C7.37581 21.1513 7.20515 21.2224 7.08098 21.3459C6.95747 21.4694 6.88708 21.64 6.88708 21.8153C6.88708 21.99 6.95747 22.1613 7.08098 22.2848C7.20515 22.4083 7.37647 22.4794 7.55111 22.4794C7.72575 22.4794 7.89706 22.4083 8.02057 22.2848C8.14408 22.1613 8.21513 21.99 8.21513 21.8153C8.21513 21.64 8.14408 21.4694 8.02057 21.3459C7.89706 21.2223 7.72575 21.1513 7.55111 21.1513Z" fill="white"/>
</g>
<defs>
<clipPath id="clip0_15_321">
<rect width="34" height="34" fill="white"/>
</clipPath>
</defs>
</svg>
