<svg width="27" height="27" viewBox="0 0 27 27" fill="none" xmlns="http://www.w3.org/2000/svg">
<g clip-path="url(#clip0_16_117)">
<path d="M24.4798 0.324341H6.57194C5.65323 0.324341 4.90771 1.06952 4.90771 1.98902V3.55768H6.65465V2.07127H24.3971V19.8133H23.0553V21.5602H24.4798C25.3985 21.5602 26.144 20.8152 26.144 19.8957V1.98902C26.144 1.06952 25.3985 0.324341 24.4798 0.324341Z" fill="#0095DA"/>
<path d="M19.6438 5.30417H1.73589C0.817295 5.30417 0.0717773 6.04923 0.0717773 6.96885V24.8754C0.0717773 25.795 0.817295 26.5401 1.73589 26.5401H19.6438C20.5626 26.5401 21.3081 25.795 21.3081 24.8754V6.96885C21.3081 6.04923 20.5626 5.30417 19.6438 5.30417ZM19.5611 24.7931H1.81871V7.05116H19.5611V24.7931H19.5611Z" fill="#0095DA"/>
<path d="M3.17125 23.7238L7.21269 23.7251C7.3305 23.7251 7.4371 23.6539 7.48225 23.5451C7.52752 23.4364 7.50197 23.311 7.41921 23.2273L6.01682 21.8247L16.5702 11.2145L17.9717 12.6164C18.0552 12.6996 18.1806 12.7248 18.289 12.6795C18.3982 12.6343 18.4691 12.5281 18.4691 12.4104L18.4699 8.3698C18.4699 8.20902 18.3394 8.07852 18.1782 8.07852L14.1375 8.07721C14.0197 8.07721 13.9131 8.14837 13.868 8.2572C13.8227 8.36592 13.8475 8.49132 13.9311 8.57489L15.3351 9.97938L4.78169 20.5894L3.37765 19.1858C3.29403 19.1027 3.16948 19.0775 3.06025 19.1227C2.95108 19.1679 2.88037 19.2741 2.88037 19.3918V23.4325C2.88043 23.5933 3.01092 23.7238 3.17125 23.7238Z" fill="#0095DA"/>
</g>
<defs>
<clipPath id="clip0_16_117">
<rect width="26.2162" height="26.2162" fill="white" transform="translate(0 0.324341)"/>
</clipPath>
</defs>
</svg>
