<svg width="20" height="20" viewBox="0 0 20 20" fill="none" xmlns="http://www.w3.org/2000/svg">
<path fill-rule="evenodd" clip-rule="evenodd" d="M10.1805 0C4.75843 0 0.364631 4.36324 0.364631 9.74313C0.364631 11.5847 0.87876 13.3068 1.77211 14.7721L0 20L5.43665 18.2742C6.84412 19.0449 8.45944 19.4863 10.1841 19.4863C15.6062 19.4863 20.0036 15.123 20.0036 9.74313C20.0036 4.36324 15.6062 0 10.1805 0ZM10.1805 17.8546C8.52142 17.8546 6.97539 17.3589 5.68459 16.5123L2.54512 17.5109L3.56609 14.5007C2.58888 13.1621 2.00912 11.5195 2.00912 9.74674C2.00912 5.27135 5.67366 1.63169 10.1805 1.63169C14.6873 1.63169 18.3555 5.27135 18.3555 9.74313C18.3555 14.2149 14.6873 17.8546 10.1805 17.8546ZM14.7858 11.9573C14.5378 11.8234 13.3309 11.1758 13.1048 11.0854C12.8788 10.9949 12.711 10.9479 12.536 11.1903C12.361 11.4327 11.8578 11.9754 11.7046 12.1346C11.5515 12.2938 11.4057 12.3119 11.1577 12.1744C10.9134 12.0405 10.1149 11.7475 9.1887 10.8647C8.47037 10.1773 7.99635 9.34515 7.85779 9.0919C7.71923 8.83864 7.85779 8.70839 7.98541 8.589C8.1021 8.48046 8.24795 8.3068 8.37922 8.1657C8.51048 8.0246 8.55424 7.9233 8.6454 7.76049C8.73655 7.59768 8.70009 7.44935 8.64175 7.32272C8.58341 7.19609 8.12762 5.95514 7.93801 5.44863C7.74841 4.94211 7.53692 5.01809 7.39107 5.01085C7.24521 5.00724 7.07748 4.97829 6.90975 4.97106C6.74202 4.96382 6.46855 5.01809 6.22789 5.25687C5.98724 5.49566 5.31996 6.07453 5.27256 7.2974C5.22516 8.52026 6.0784 9.73589 6.19872 9.90593C6.31905 10.076 7.82862 12.7279 10.3373 13.8206C12.8496 14.9096 12.8605 14.5803 13.32 14.555C13.7794 14.5297 14.8259 14.0087 15.0556 13.437C15.2853 12.8654 15.3036 12.3661 15.2452 12.2612C15.1869 12.1563 15.0228 12.0876 14.7748 11.9537L14.7858 11.9573Z" fill="white"/>
</svg>
