<svg width="33" height="15" viewBox="0 0 33 15" fill="none" xmlns="http://www.w3.org/2000/svg">
<path fill-rule="evenodd" clip-rule="evenodd" d="M25.8475 1.92539H27.3575V5.4653L31.7063 9.1075H29.3274L20.8794 1.98355L19.7764 2.91617L18.6164 1.92339L20.8597 0.0220618L25.8495 4.19976V1.92539H25.8475ZM4.88168 9.10951L15.6831 0L26.3902 9.06137L24.1194 9.10951L15.687 2.0016L7.2429 9.10951H4.87971H4.88168ZM0 14.5949H22.1081V8.40754H22.9889V14.5949H33V15H0V14.5949Z" fill="#0095DA"/>
<path fill-rule="evenodd" clip-rule="evenodd" d="M15.7642 5H16.8748C16.9431 5 17 5.0582 17 5.12805V6.26386C17 6.3337 16.9431 6.39191 16.8748 6.39191H15.7642C15.6959 6.39191 15.639 6.3337 15.639 6.26386V5.12805C15.639 5.0582 15.6959 5 15.7642 5ZM15.7642 6.60809H16.8748C16.9431 6.60809 17 6.6663 17 6.73614V7.87195C17 7.9418 16.9431 8 16.8748 8H15.7642C15.6959 8 15.639 7.9418 15.639 7.87195V6.73614C15.639 6.6663 15.6959 6.60809 15.7642 6.60809ZM14.1252 6.60809H15.2358C15.3041 6.60809 15.361 6.6663 15.361 6.73614V7.87195C15.361 7.9418 15.3041 8 15.2358 8H14.1252C14.0569 8 14 7.9418 14 7.87195V6.73614C14 6.6663 14.0569 6.60809 14.1252 6.60809ZM14.1252 5H15.2358C15.3041 5 15.361 5.0582 15.361 5.12805V6.26386C15.361 6.3337 15.3041 6.39191 15.2358 6.39191H14.1252C14.0569 6.39191 14 6.3337 14 6.26386V5.12805C14 5.0582 14.0569 5 14.1252 5Z" fill="#A7A9AC"/>
</svg>
