<svg width="138" height="60" viewBox="0 0 138 60" fill="none" xmlns="http://www.w3.org/2000/svg">
<path d="M6.06163 58.0831V58.2263C6.06163 58.7648 6.06163 59.2489 5.6111 59.6238C5.1674 59.992 4.6213 59.9851 4.0479 59.9851C2.70997 59.9851 1.73383 59.917 1.73383 58.124V56.856C1.73383 55.2334 2.60758 54.9948 4.0479 54.9948C5.39949 54.9948 6.0275 55.1312 6.0548 56.6105V56.8014H4.70322V56.6105C4.65543 56.1742 4.34825 56.1401 3.90455 56.1401C3.15367 56.1401 3.08541 56.3719 3.08541 57.0741V57.8377C3.08541 58.5739 3.11954 58.8534 3.90455 58.8534C4.45065 58.8534 4.71004 58.8125 4.71004 58.2399V58.0967H6.06163V58.0831Z" fill="black"/>
<path d="M9.51569 58.1853V56.7946C9.51569 55.2811 10.4577 54.9948 11.7956 54.9948C13.1336 54.9948 14.0756 55.2811 14.0756 56.7946V58.1853C14.0756 59.6988 13.1336 59.9851 11.7956 59.9851C10.4577 59.9851 9.51569 59.6988 9.51569 58.1853ZM12.7172 58.0422V56.9378C12.7172 56.2083 12.4714 56.1401 11.7888 56.1401C11.1062 56.1401 10.8809 56.2151 10.8604 56.9378V58.0422C10.8809 58.7785 11.1062 58.8466 11.7888 58.8466C12.4714 58.8466 12.7172 58.7716 12.7172 58.0422Z" fill="black"/>
<path d="M17.6798 55.0289H20.2123C21.3455 55.0494 21.9052 55.288 21.9052 56.5151C21.9052 57.3332 21.9052 57.8104 20.97 58.0286V58.0831C21.5093 58.1036 21.8574 58.3967 21.8574 58.9557V59.9443H20.5468V59.2557C20.5605 58.8876 20.4035 58.6421 20.0075 58.6421H18.9904V59.9443H17.6798V55.0289ZM20.0075 57.4968C20.5741 57.4968 20.5536 57.2855 20.5536 56.7333C20.5536 56.297 20.4444 56.1674 20.0075 56.1674H18.9904V57.4968H20.0075Z" fill="black"/>
<path d="M25.564 55.0289H28.0965C29.2297 55.0494 29.7894 55.288 29.7894 56.5151C29.7894 57.3332 29.7894 57.8104 28.8542 58.0286V58.0831C29.3935 58.1036 29.7417 58.3967 29.7417 58.9557V59.9443H28.431V59.2557C28.4447 58.8876 28.2877 58.6421 27.8918 58.6421H26.8747V59.9443H25.564V55.0289ZM27.8918 57.4968C28.4583 57.4968 28.4378 57.2855 28.4378 56.7333C28.4378 56.297 28.3286 56.1674 27.8918 56.1674H26.8747V57.4968H27.8918Z" fill="black"/>
<path d="M34.8067 57.0059H36.9091V57.9195H34.8067V58.8739H37.0934V59.951H33.496V55.0357H37.0456V56.1129H34.8067V57.0127V57.0059Z" fill="black"/>
<path d="M43.121 59.9443H41.8103V56.1674H40.5475V55.0289H44.4452V56.1674H43.121V59.9443Z" fill="black"/>
<path d="M47.6877 58.1853V56.7946C47.6877 55.2811 48.6297 54.9948 49.9676 54.9948C51.3056 54.9948 52.2476 55.2811 52.2476 56.7946V58.1853C52.2476 59.6988 51.3056 59.9851 49.9676 59.9851C48.6297 59.9851 47.6877 59.6988 47.6877 58.1853ZM50.8892 58.0422V56.9378C50.8892 56.2083 50.6434 56.1401 49.9608 56.1401C49.2782 56.1401 49.0529 56.2151 49.0324 56.9378V58.0422C49.0529 58.7785 49.2782 58.8466 49.9608 58.8466C50.6434 58.8466 50.8892 58.7716 50.8892 58.0422Z" fill="black"/>
<path d="M55.845 55.0289H58.3775C59.5107 55.0494 60.0704 55.288 60.0704 56.5151C60.0704 57.3332 60.0704 57.8104 59.1353 58.0286V58.0831C59.6745 58.1036 60.0227 58.3967 60.0227 58.9557V59.9443H58.712V59.2557C58.7257 58.8876 58.5687 58.6421 58.1728 58.6421H57.1557V59.9443H55.845V55.0289ZM58.1728 57.4968C58.7393 57.4968 58.7189 57.2855 58.7189 56.7333C58.7189 56.297 58.6096 56.1674 58.1728 56.1674H57.1557V57.4968H58.1728Z" fill="black"/>
<path d="M69.0809 55.0289H71.5725C72.9446 55.0289 73.5521 55.5402 73.5521 56.9378V57.9672C73.5521 59.3102 73.122 59.9443 71.75 59.9443H69.0809V55.0289ZM70.3916 58.8058H71.5384C72.023 58.8058 72.2005 58.4853 72.2005 57.9672V56.9378C72.2005 56.3038 71.9957 56.1743 71.5384 56.1743H70.3916V58.8058Z" fill="black"/>
<path d="M78.5762 57.0059H80.6786V57.9195H78.5762V58.8739H80.8561V59.951H77.2587V55.0357H80.8083V56.1129H78.5694V57.0127L78.5762 57.0059Z" fill="black"/>
<path d="M91.4162 59.9443H90.1056V55.0289H91.4162V59.9443Z" fill="black"/>
<path d="M96.5496 59.9443H95.239V55.0289H97.3209L98.2629 58.1172H98.3107L99.205 55.0289H101.335V59.9443H100.024L100.154 56.1743H100.106L98.8568 59.9443H97.7237L96.4608 56.1743H96.4199L96.5496 59.9443Z" fill="black"/>
<path d="M104.959 58.1854V56.7946C104.959 55.2811 105.901 54.9948 107.239 54.9948C108.577 54.9948 109.512 55.2811 109.512 56.7946V58.1854C109.512 59.6988 108.57 59.9851 107.239 59.9851C105.908 59.9851 104.959 59.6988 104.959 58.1854ZM108.161 58.0422V56.9378C108.161 56.2083 107.915 56.1401 107.233 56.1401C106.55 56.1401 106.325 56.2151 106.304 56.9378V58.0422C106.325 58.7785 106.55 58.8466 107.233 58.8466C107.915 58.8466 108.161 58.7716 108.161 58.0422ZM108.072 54.2449L106.591 54.7085L106.407 54.2994L107.744 53.5154L108.072 54.2449Z" fill="black"/>
<path d="M116.161 55.0289H117.52L116.086 59.9443H114.038L112.646 55.0289H113.977L115.042 58.8194H115.083L116.168 55.0289H116.161Z" fill="black"/>
<path d="M122.168 57.0059H124.271V57.9195H122.168V58.8739H124.448V59.951H120.851V55.0357H124.4V56.1129H122.161V57.0127L122.168 57.0059Z" fill="black"/>
<path d="M129.616 59.9443H128.305V55.0289H129.616V59.9443Z" fill="black"/>
<path d="M135.691 56.9582C137.145 57.0605 137.507 57.2445 137.507 58.3762C137.507 59.1875 137.541 59.9919 135.377 59.9919C134.121 59.9919 133.288 59.9647 133.288 58.3558H134.551C134.551 58.8671 134.735 58.9216 135.377 58.9216C136.019 58.9216 136.196 58.8807 136.196 58.4717C136.196 58.0626 136.121 58.049 135.507 58.0149L135.22 57.9944C134.005 57.9126 133.295 57.9126 133.295 56.5082C133.295 55.1039 134.087 55.0084 135.377 55.0084C136.455 55.0084 137.37 55.0289 137.37 56.3855V56.5901H136.107C136.107 56.0856 135.896 56.0856 135.37 56.0856C134.66 56.0856 134.606 56.2287 134.606 56.5082C134.606 56.9037 134.797 56.9173 135.145 56.9377L135.691 56.9786V56.9582Z" fill="black"/>
<path fill-rule="evenodd" clip-rule="evenodd" d="M89.7438 7.52534H94.9863V19.558L110.086 31.9384H101.826L72.4941 7.72305L68.6646 10.8931L64.6371 7.51852L72.4258 1.05564L89.7507 15.2563V7.52534H89.7438ZM16.9494 31.9452L54.4525 0.980652L91.6279 31.7816L83.7436 31.9452L54.4661 7.7844L25.1477 31.9452H16.9426H16.9494ZM0 50.5908H76.7604V29.5591H79.8186V50.5908H114.577V51.9679H0V50.5908Z" fill="#0095DA"/>
<path d="M13.8845 42.4372V45.5118C13.8845 46.6912 13.5909 47.5366 12.9971 48.0547C12.41 48.5728 11.4339 48.825 10.0755 48.825H3.79537C2.53253 48.825 1.60417 48.5592 1.01711 48.0274C0.430062 47.4957 0.136536 46.6571 0.136536 45.5186V36.9151C0.136536 35.572 0.409583 34.6244 0.955678 34.0722C1.50177 33.52 2.45061 33.2473 3.79537 33.2473H10.0755C11.509 33.2473 12.4988 33.52 13.0517 34.0586C13.6046 34.5972 13.8776 35.5516 13.8776 36.9151V38.9398H7.77504V37.8218C7.77504 37.4196 7.7136 37.1332 7.59755 36.9628C7.47468 36.7924 7.27672 36.7105 6.99685 36.7105C6.71698 36.7105 6.5395 36.7992 6.41662 36.9764C6.29375 37.1537 6.23914 37.4332 6.23914 37.8218V44.2369C6.23914 44.6255 6.30058 44.905 6.41662 45.0823C6.5395 45.2595 6.73063 45.3482 6.99685 45.3482C7.26307 45.3482 7.46103 45.2595 7.5839 45.0823C7.7136 44.905 7.77504 44.6187 7.77504 44.2369V42.4508H13.8776L13.8845 42.4372Z" fill="black"/>
<path d="M15.1951 48.716V33.3292H19.6731V48.716H15.1951Z" fill="black"/>
<path d="M26.6631 40.3374V39.8193C26.6631 39.4648 26.6085 39.2125 26.5061 39.0694C26.4037 38.9262 26.2262 38.858 25.9805 38.858C25.7552 38.858 25.5846 38.933 25.4753 39.0898C25.3661 39.2466 25.3115 39.4852 25.3115 39.8193V40.2147H20.9632V39.3421C20.9632 38.3127 21.1817 37.59 21.6254 37.1878C22.0691 36.7787 22.8404 36.5742 23.9463 36.5742H28.1239C29.2229 36.5742 29.9943 36.7787 30.438 37.1878C30.8817 37.5968 31.1001 38.3127 31.1001 39.3421V48.7092H26.7723V47.9524C26.315 48.2456 25.8644 48.4569 25.4071 48.5933C24.9566 48.7296 24.4856 48.8046 24.0009 48.8046C22.9906 48.8046 22.2261 48.5046 21.7005 47.8979C21.1749 47.2912 20.9086 46.4117 20.9086 45.2596V44.7687C20.9086 44.0256 21.0452 43.4598 21.325 43.0576C21.6049 42.6553 22.0964 42.3076 22.8063 42.0009L26.6631 40.3374ZM26.6836 45.205V43.3234L26.0692 43.6098C25.7825 43.7529 25.5846 43.9165 25.4685 44.1074C25.3525 44.2983 25.291 44.571 25.291 44.9323V45.1982C25.291 45.5254 25.3456 45.7709 25.4617 45.9277C25.5777 46.0913 25.7484 46.1663 25.9737 46.1663C26.2194 46.1663 26.3969 46.0913 26.5129 45.9345C26.6221 45.7777 26.6768 45.5323 26.6768 45.1914L26.6836 45.205Z" fill="black"/>
<path d="M42.6159 36.6219V48.7159H38.2676V47.9592C37.8102 48.2523 37.3597 48.4637 36.9092 48.6C36.4587 48.7364 35.9877 48.8114 35.4962 48.8114C34.4859 48.8114 33.7214 48.5114 33.1889 47.9046C32.6565 47.2979 32.3903 46.4185 32.3903 45.2663V36.6219H36.8682V45.0618C36.8682 45.3754 36.916 45.6072 37.0184 45.7572C37.1208 45.9071 37.2778 45.9821 37.4894 45.9821C37.7147 45.9821 37.8717 45.9071 37.9741 45.764C38.0765 45.6208 38.1243 45.3822 38.1243 45.055V36.6151H42.6159V36.6219Z" fill="black"/>
<path d="M54.077 33.3224V48.7092H49.7492V47.932C49.2987 48.2252 48.8413 48.4501 48.384 48.5865C47.9266 48.7296 47.442 48.7978 46.9368 48.7978C45.9266 48.7978 45.162 48.4979 44.6228 47.8911C44.0835 47.2844 43.8241 46.4049 43.8241 45.2528V40.0579C43.8241 38.9126 44.0903 38.0332 44.6228 37.4332C45.1552 36.8333 45.9266 36.5333 46.9368 36.5333C47.4215 36.5333 47.8788 36.5947 48.3089 36.7174C48.7321 36.8401 49.1622 37.031 49.5991 37.2901V33.3087H54.077V33.3224ZM49.5991 45.0551V40.2829C49.5991 39.9625 49.5513 39.7239 49.4489 39.5739C49.3465 39.4239 49.1895 39.3489 48.971 39.3489C48.7526 39.3489 48.6024 39.4239 48.5 39.5739C48.3976 39.7239 48.3499 39.9625 48.3499 40.2829V45.0551C48.3499 45.3687 48.3976 45.6005 48.5 45.7504C48.6024 45.9004 48.7594 45.9754 48.971 45.9754C49.1963 45.9754 49.3533 45.9004 49.4557 45.7573C49.5581 45.6141 49.6059 45.3755 49.6059 45.0483L49.5991 45.0551Z" fill="black"/>
<path d="M55.4696 35.7698V33.3292H59.9476V35.7698H55.4696ZM55.4696 48.716V36.622H59.9476V48.716H55.4696Z" fill="black"/>
<path d="M61.1763 39.3489C61.1763 38.3127 61.3947 37.59 61.8316 37.1878C62.2685 36.7856 63.0398 36.5811 64.1388 36.5811H68.5417C69.6476 36.5811 70.4189 36.7856 70.8626 37.1946C71.3063 37.6037 71.5248 38.3195 71.5248 39.3489V45.9822C71.5248 47.0117 71.3063 47.7343 70.8626 48.1365C70.4189 48.5456 69.6476 48.7501 68.5417 48.7501H64.1388C63.0398 48.7501 62.2685 48.5524 61.8316 48.1502C61.3947 47.7479 61.1763 47.0253 61.1763 45.9822V39.3489ZM65.7157 39.867V45.4914C65.7157 45.805 65.7635 46.0368 65.8659 46.1867C65.9682 46.3367 66.1253 46.4117 66.3369 46.4117C66.5621 46.4117 66.7191 46.3367 66.8215 46.1936C66.9171 46.0504 66.9717 45.8118 66.9717 45.4846V39.8602C66.9717 39.5398 66.9239 39.3012 66.8215 39.1512C66.7191 39.0012 66.5621 38.9262 66.3437 38.9262C66.1253 38.9262 65.9682 39.0012 65.8727 39.1512C65.7703 39.3012 65.7225 39.5398 65.7225 39.8602L65.7157 39.867Z" fill="black"/>
<path d="M82.863 48.716V33.3292H92.5767V36.8333H88.8769V38.5172H92.5767V42.0213H88.8769V48.7092H82.863V48.716Z" fill="black"/>
<path d="M93.8326 48.716V36.6219H98.1809V37.3787C98.611 37.0923 99.041 36.8878 99.4642 36.7515C99.8875 36.6151 100.338 36.5469 100.816 36.5469C101.792 36.5469 102.536 36.8469 103.048 37.4468C103.56 38.0468 103.819 38.9262 103.819 40.0715V41.4214H99.5666V40.2829C99.5666 39.9624 99.5188 39.7238 99.4165 39.5739C99.3141 39.4239 99.1571 39.3489 98.9454 39.3489C98.7202 39.3489 98.5632 39.4239 98.4608 39.5739C98.3584 39.7238 98.3106 39.9624 98.3106 40.2829V48.716H93.8326Z" fill="black"/>
<path d="M110.359 40.3375V39.8194C110.359 39.4649 110.304 39.2126 110.202 39.0694C110.099 38.9263 109.922 38.8581 109.676 38.8581C109.451 38.8581 109.28 38.9331 109.171 39.0899C109.062 39.2467 109.007 39.4853 109.007 39.8194V40.2148H104.659V39.3421C104.659 38.3127 104.877 37.5901 105.321 37.1878C105.765 36.7788 106.536 36.5743 107.642 36.5743H111.82C112.919 36.5743 113.69 36.7788 114.134 37.1878C114.577 37.5969 114.796 38.3127 114.796 39.3421V48.7092H110.468V47.9525C110.011 48.2456 109.56 48.457 109.103 48.5933C108.652 48.7297 108.181 48.8047 107.697 48.8047C106.686 48.8047 105.922 48.5047 105.396 47.898C104.871 47.2912 104.604 46.4118 104.604 45.2596V44.7688C104.604 44.0257 104.741 43.4598 105.021 43.0576C105.301 42.6554 105.792 42.3077 106.502 42.0009L110.359 40.3375ZM110.379 45.2051V43.3235L109.765 43.6098C109.478 43.753 109.28 43.9166 109.164 44.1075C109.048 44.2984 108.987 44.5711 108.987 44.9324V45.1983C108.987 45.5255 109.041 45.7709 109.157 45.9277C109.273 46.0914 109.444 46.1663 109.669 46.1663C109.915 46.1663 110.093 46.0914 110.209 45.9346C110.318 45.7778 110.379 45.5323 110.379 45.1915V45.2051Z" fill="black"/>
<path d="M126.243 49.0773C126.243 50.1136 126.025 50.8362 125.588 51.2453C125.151 51.6543 124.387 51.8588 123.288 51.8588H116.496V49.5477H120.701C121.103 49.5477 121.383 49.5 121.533 49.4046C121.69 49.3091 121.765 49.1319 121.765 48.8796V48.0275C121.322 48.3002 120.885 48.4979 120.462 48.6206C120.038 48.7433 119.581 48.8046 119.11 48.8046C118.107 48.8046 117.335 48.5047 116.796 47.8979C116.263 47.2912 115.997 46.4117 115.997 45.2596V40.0648C115.997 38.9194 116.263 38.04 116.796 37.4401C117.328 36.8401 118.1 36.5402 119.11 36.5402C119.615 36.5402 120.1 36.6083 120.557 36.7515C121.015 36.8947 121.465 37.1128 121.922 37.406V36.6083H126.25V49.0637L126.243 49.0773ZM121.765 40.2829C121.765 39.9557 121.718 39.7171 121.615 39.5739C121.513 39.4307 121.356 39.3489 121.131 39.3489C120.919 39.3489 120.762 39.4239 120.666 39.5739C120.564 39.7239 120.516 39.9625 120.516 40.2829V45.0551C120.516 45.3755 120.571 45.6073 120.666 45.7573C120.769 45.9073 120.933 45.9822 121.151 45.9822C121.369 45.9822 121.52 45.9073 121.622 45.7573C121.724 45.6073 121.765 45.3755 121.765 45.0551V40.2829Z" fill="black"/>
<path d="M133.213 40.3375V39.8194C133.213 39.4649 133.158 39.2126 133.056 39.0694C132.954 38.9263 132.776 38.8581 132.53 38.8581C132.305 38.8581 132.134 38.9331 132.025 39.0899C131.916 39.2467 131.861 39.4853 131.861 39.8194V40.2148H127.513V39.3421C127.513 38.3127 127.732 37.5901 128.175 37.1878C128.619 36.7788 129.39 36.5743 130.496 36.5743H134.674C135.773 36.5743 136.544 36.7788 136.988 37.1878C137.432 37.5969 137.65 38.3127 137.65 39.3421V48.7092H133.322V47.9525C132.865 48.2456 132.414 48.457 131.957 48.5933C131.506 48.7297 131.035 48.8047 130.551 48.8047C129.54 48.8047 128.776 48.5047 128.25 47.898C127.725 47.2912 127.458 46.4118 127.458 45.2596V44.7688C127.458 44.0257 127.595 43.4598 127.875 43.0576C128.155 42.6554 128.646 42.3077 129.356 42.0009L133.213 40.3375ZM133.233 45.2051V43.3235L132.619 43.6098C132.332 43.753 132.134 43.9166 132.018 44.1075C131.902 44.2984 131.841 44.5711 131.841 44.9324V45.1983C131.841 45.5255 131.896 45.7709 132.012 45.9277C132.128 46.0914 132.298 46.1663 132.524 46.1663C132.769 46.1663 132.947 46.0914 133.063 45.9346C133.172 45.7778 133.233 45.5323 133.233 45.1915V45.2051Z" fill="black"/>
<g clip-path="url(#clip0_104_86)">
<path fill-rule="evenodd" clip-rule="evenodd" d="M55.8724 17.3423H60.5346C60.8213 17.3423 61.0603 17.581 61.0603 17.8673V22.5236C61.0603 22.8099 60.8213 23.0485 60.5346 23.0485H55.8724C55.5857 23.0485 55.3467 22.8099 55.3467 22.5236V17.8673C55.3467 17.581 55.5857 17.3423 55.8724 17.3423ZM55.8724 23.9348H60.5346C60.8213 23.9348 61.0603 24.1734 61.0603 24.4597V29.116C61.0603 29.4023 60.8213 29.6409 60.5346 29.6409H55.8724C55.5857 29.6409 55.3467 29.4023 55.3467 29.116V24.4597C55.3467 24.1734 55.5857 23.9348 55.8724 23.9348ZM48.9916 23.9348H53.6538C53.9405 23.9348 54.1795 24.1734 54.1795 24.4597V29.116C54.1795 29.4023 53.9405 29.6409 53.6538 29.6409H48.9916C48.7049 29.6409 48.4659 29.4023 48.4659 29.116V24.4597C48.4659 24.1734 48.7049 23.9348 48.9916 23.9348ZM48.9916 17.3423H53.6538C53.9405 17.3423 54.1795 17.581 54.1795 17.8673V22.5236C54.1795 22.8099 53.9405 23.0485 53.6538 23.0485H48.9916C48.7049 23.0485 48.4659 22.8099 48.4659 22.5236V17.8673C48.4659 17.581 48.7049 17.3423 48.9916 17.3423Z" fill="#A7A9AC"/>
</g>
<defs>
<clipPath id="clip0_104_86">
<rect width="12.5943" height="12.2986" fill="white" transform="translate(48.4659 17.3423)"/>
</clipPath>
</defs>
</svg>
