<svg width="138" height="60" viewBox="0 0 138 60" fill="none" xmlns="http://www.w3.org/2000/svg">
<path d="M6.06163 57.1024V57.2456C6.06163 57.7842 6.06163 58.2682 5.6111 58.6432C5.1674 59.0113 4.6213 59.0045 4.0479 59.0045C2.70997 59.0045 1.73383 58.9363 1.73383 57.1433V55.8753C1.73383 54.2528 2.60758 54.0142 4.0479 54.0142C5.39949 54.0142 6.0275 54.1505 6.0548 55.6299V55.8208H4.70322V55.6299C4.65543 55.1936 4.34825 55.1595 3.90455 55.1595C3.15367 55.1595 3.08541 55.3913 3.08541 56.0935V56.857C3.08541 57.5933 3.11954 57.8728 3.90455 57.8728C4.45065 57.8728 4.71004 57.8319 4.71004 57.2592V57.1161H6.06163V57.1024Z" fill="white"/>
<path d="M9.51569 57.2047V55.8139C9.51569 54.3005 10.4577 54.0142 11.7956 54.0142C13.1336 54.0142 14.0756 54.3005 14.0756 55.8139V57.2047C14.0756 58.7182 13.1336 59.0045 11.7956 59.0045C10.4577 59.0045 9.51569 58.7182 9.51569 57.2047ZM12.7172 57.0615V55.9571C12.7172 55.2277 12.4714 55.1595 11.7888 55.1595C11.1062 55.1595 10.8809 55.2345 10.8604 55.9571V57.0615C10.8809 57.7978 11.1062 57.866 11.7888 57.866C12.4714 57.866 12.7172 57.791 12.7172 57.0615Z" fill="white"/>
<path d="M17.6798 54.0483H20.2123C21.3455 54.0688 21.9052 54.3074 21.9052 55.5345C21.9052 56.3526 21.9052 56.8298 20.97 57.048V57.1025C21.5093 57.123 21.8574 57.4161 21.8574 57.9752V58.9637H20.5468V58.2751C20.5605 57.907 20.4035 57.6616 20.0075 57.6616H18.9904V58.9637H17.6798V54.0483ZM20.0075 56.5162C20.5741 56.5162 20.5536 56.3049 20.5536 55.7527C20.5536 55.3164 20.4444 55.1868 20.0075 55.1868H18.9904V56.5162H20.0075Z" fill="white"/>
<path d="M25.564 54.0483H28.0965C29.2297 54.0688 29.7894 54.3074 29.7894 55.5345C29.7894 56.3526 29.7894 56.8298 28.8542 57.048V57.1025C29.3935 57.123 29.7417 57.4161 29.7417 57.9752V58.9637H28.431V58.2751C28.4447 57.907 28.2877 57.6616 27.8918 57.6616H26.8747V58.9637H25.564V54.0483ZM27.8918 56.5162C28.4583 56.5162 28.4378 56.3049 28.4378 55.7527C28.4378 55.3164 28.3286 55.1868 27.8918 55.1868H26.8747V56.5162H27.8918Z" fill="white"/>
<path d="M34.8067 56.0252H36.9091V56.9387H34.8067V57.8931H37.0934V58.9703H33.496V54.0549H37.0456V55.1321H34.8067V56.032V56.0252Z" fill="white"/>
<path d="M43.121 58.9637H41.8103V55.1868H40.5475V54.0483H44.4452V55.1868H43.121V58.9637Z" fill="white"/>
<path d="M47.6877 57.2047V55.8139C47.6877 54.3005 48.6297 54.0142 49.9676 54.0142C51.3056 54.0142 52.2476 54.3005 52.2476 55.8139V57.2047C52.2476 58.7182 51.3056 59.0045 49.9676 59.0045C48.6297 59.0045 47.6877 58.7182 47.6877 57.2047ZM50.8892 57.0615V55.9571C50.8892 55.2277 50.6434 55.1595 49.9608 55.1595C49.2782 55.1595 49.0529 55.2345 49.0324 55.9571V57.0615C49.0529 57.7978 49.2782 57.866 49.9608 57.866C50.6434 57.866 50.8892 57.791 50.8892 57.0615Z" fill="white"/>
<path d="M55.845 54.0483H58.3775C59.5107 54.0688 60.0704 54.3074 60.0704 55.5345C60.0704 56.3526 60.0704 56.8298 59.1353 57.048V57.1025C59.6745 57.123 60.0227 57.4161 60.0227 57.9752V58.9637H58.712V58.2751C58.7257 57.907 58.5687 57.6616 58.1728 57.6616H57.1557V58.9637H55.845V54.0483ZM58.1728 56.5162C58.7393 56.5162 58.7189 56.3049 58.7189 55.7527C58.7189 55.3164 58.6096 55.1868 58.1728 55.1868H57.1557V56.5162H58.1728Z" fill="white"/>
<path d="M69.0809 54.0483H71.5725C72.9446 54.0483 73.5521 54.5596 73.5521 55.9572V56.9866C73.5521 58.3297 73.122 58.9637 71.75 58.9637H69.0809V54.0483ZM70.3916 57.8252H71.5384C72.023 57.8252 72.2005 57.5048 72.2005 56.9866V55.9572C72.2005 55.3232 71.9957 55.1937 71.5384 55.1937H70.3916V57.8252Z" fill="white"/>
<path d="M78.5762 56.0252H80.6786V56.9387H78.5762V57.8931H80.8561V58.9703H77.2587V54.0549H80.8083V55.1321H78.5694V56.032L78.5762 56.0252Z" fill="white"/>
<path d="M91.4162 58.9637H90.1056V54.0483H91.4162V58.9637Z" fill="white"/>
<path d="M96.5496 58.9637H95.239V54.0483H97.3209L98.2629 57.1366H98.3107L99.205 54.0483H101.335V58.9637H100.024L100.154 55.1937H100.106L98.8568 58.9637H97.7237L96.4608 55.1937H96.4199L96.5496 58.9637Z" fill="white"/>
<path d="M104.959 57.2048V55.8141C104.959 54.3006 105.901 54.0143 107.239 54.0143C108.577 54.0143 109.512 54.3006 109.512 55.8141V57.2048C109.512 58.7183 108.57 59.0046 107.239 59.0046C105.908 59.0046 104.959 58.7183 104.959 57.2048ZM108.161 57.0617V55.9572C108.161 55.2278 107.915 55.1596 107.233 55.1596C106.55 55.1596 106.325 55.2346 106.304 55.9572V57.0617C106.325 57.7979 106.55 57.8661 107.233 57.8661C107.915 57.8661 108.161 57.7911 108.161 57.0617ZM108.072 53.2644L106.591 53.728L106.407 53.3189L107.744 52.5349L108.072 53.2644Z" fill="white"/>
<path d="M116.161 54.0483H117.52L116.086 58.9637H114.038L112.646 54.0483H113.977L115.042 57.8388H115.083L116.168 54.0483H116.161Z" fill="white"/>
<path d="M122.168 56.0252H124.271V56.9387H122.168V57.8931H124.448V58.9703H120.851V54.0549H124.4V55.1321H122.161V56.032L122.168 56.0252Z" fill="white"/>
<path d="M129.616 58.9637H128.305V54.0483H129.616V58.9637Z" fill="white"/>
<path d="M135.691 55.9776C137.145 56.0799 137.507 56.2639 137.507 57.3956C137.507 58.2069 137.541 59.0113 135.377 59.0113C134.121 59.0113 133.288 58.9841 133.288 57.3752H134.551C134.551 57.8865 134.735 57.941 135.377 57.941C136.019 57.941 136.196 57.9001 136.196 57.4911C136.196 57.082 136.121 57.0684 135.507 57.0343L135.22 57.0138C134.005 56.932 133.295 56.932 133.295 55.5277C133.295 54.1233 134.087 54.0278 135.377 54.0278C136.455 54.0278 137.37 54.0483 137.37 55.4049V55.6095H136.107C136.107 55.105 135.896 55.105 135.37 55.105C134.66 55.105 134.606 55.2481 134.606 55.5277C134.606 55.9231 134.797 55.9367 135.145 55.9572L135.691 55.9981V55.9776Z" fill="white"/>
<path fill-rule="evenodd" clip-rule="evenodd" d="M89.7438 6.54469H94.9863V18.5774L110.086 30.9578H101.826L72.4941 6.74239L68.6646 9.91248L64.6371 6.53787L72.4258 0.0749912L89.7507 14.2756V6.54469H89.7438ZM16.9494 30.9646L54.4525 0L91.6279 30.801L83.7436 30.9646L54.4661 6.80375L25.1477 30.9646H16.9426H16.9494ZM0 49.6101H76.7604V28.5785H79.8186V49.6101H114.577V50.9872H0V49.6101Z" fill="#0095DA"/>
<path d="M13.8845 41.4564V44.5311C13.8845 45.7105 13.5909 46.5558 12.9971 47.074C12.41 47.5921 11.4339 47.8443 10.0755 47.8443H3.79537C2.53253 47.8443 1.60417 47.5784 1.01711 47.0467C0.430062 46.5149 0.136536 45.6764 0.136536 44.5379V35.9344C0.136536 34.5913 0.409583 33.6437 0.955678 33.0915C1.50177 32.5393 2.45061 32.2666 3.79537 32.2666H10.0755C11.509 32.2666 12.4988 32.5393 13.0517 33.0779C13.6046 33.6164 13.8776 34.5709 13.8776 35.9344V37.9591H7.77504V36.8411C7.77504 36.4388 7.7136 36.1525 7.59755 35.9821C7.47468 35.8116 7.27672 35.7298 6.99685 35.7298C6.71698 35.7298 6.5395 35.8185 6.41662 35.9957C6.29375 36.173 6.23914 36.4525 6.23914 36.8411V43.2562C6.23914 43.6448 6.30058 43.9243 6.41662 44.1016C6.5395 44.2788 6.73063 44.3675 6.99685 44.3675C7.26307 44.3675 7.46103 44.2788 7.5839 44.1016C7.7136 43.9243 7.77504 43.638 7.77504 43.2562V41.4701H13.8776L13.8845 41.4564Z" fill="white"/>
<path d="M15.1951 47.7352V32.3484H19.6731V47.7352H15.1951Z" fill="white"/>
<path d="M26.6631 39.3567V38.8386C26.6631 38.4841 26.6085 38.2318 26.5061 38.0887C26.4037 37.9455 26.2262 37.8773 25.9805 37.8773C25.7552 37.8773 25.5846 37.9523 25.4753 38.1091C25.3661 38.2659 25.3115 38.5045 25.3115 38.8386V39.234H20.9632V38.3614C20.9632 37.3319 21.1817 36.6093 21.6254 36.2071C22.0691 35.798 22.8404 35.5935 23.9463 35.5935H28.1239C29.2229 35.5935 29.9943 35.798 30.438 36.2071C30.8817 36.6161 31.1001 37.3319 31.1001 38.3614V47.7285H26.7723V46.9717C26.315 47.2649 25.8644 47.4762 25.4071 47.6126C24.9566 47.7489 24.4856 47.8239 24.0009 47.8239C22.9906 47.8239 22.2261 47.5239 21.7005 46.9172C21.1749 46.3104 20.9086 45.431 20.9086 44.2789V43.788C20.9086 43.0449 21.0452 42.4791 21.325 42.0768C21.6049 41.6746 22.0964 41.3269 22.8063 41.0201L26.6631 39.3567ZM26.6836 44.2243V42.3427L26.0692 42.629C25.7825 42.7722 25.5846 42.9358 25.4685 43.1267C25.3525 43.3176 25.291 43.5903 25.291 43.9516V44.2175C25.291 44.5447 25.3456 44.7902 25.4617 44.947C25.5777 45.1106 25.7484 45.1856 25.9737 45.1856C26.2194 45.1856 26.3969 45.1106 26.5129 44.9538C26.6221 44.797 26.6768 44.5515 26.6768 44.2107L26.6836 44.2243Z" fill="white"/>
<path d="M42.6159 35.6411V47.7351H38.2676V46.9784C37.8102 47.2716 37.3597 47.4829 36.9092 47.6192C36.4587 47.7556 35.9877 47.8306 35.4962 47.8306C34.4859 47.8306 33.7214 47.5306 33.1889 46.9239C32.6565 46.3171 32.3903 45.4377 32.3903 44.2855V35.6411H36.8682V44.081C36.8682 44.3946 36.916 44.6264 37.0184 44.7764C37.1208 44.9264 37.2778 45.0014 37.4894 45.0014C37.7147 45.0014 37.8717 44.9264 37.9741 44.7832C38.0765 44.64 38.1243 44.4014 38.1243 44.0742V35.6343H42.6159V35.6411Z" fill="white"/>
<path d="M54.077 32.3418V47.7286H49.7492V46.9514C49.2987 47.2446 48.8413 47.4695 48.384 47.6059C47.9266 47.7491 47.442 47.8172 46.9368 47.8172C45.9266 47.8172 45.162 47.5173 44.6228 46.9105C44.0835 46.3038 43.8241 45.4243 43.8241 44.2722V39.0773C43.8241 37.932 44.0903 37.0526 44.6228 36.4526C45.1552 35.8527 45.9266 35.5528 46.9368 35.5528C47.4215 35.5528 47.8788 35.6141 48.3089 35.7368C48.7321 35.8595 49.1622 36.0504 49.5991 36.3095V32.3281H54.077V32.3418ZM49.5991 44.0745V39.3023C49.5991 38.9819 49.5513 38.7433 49.4489 38.5933C49.3465 38.4433 49.1895 38.3683 48.971 38.3683C48.7526 38.3683 48.6024 38.4433 48.5 38.5933C48.3976 38.7433 48.3499 38.9819 48.3499 39.3023V44.0745C48.3499 44.3881 48.3976 44.6199 48.5 44.7699C48.6024 44.9198 48.7594 44.9948 48.971 44.9948C49.1963 44.9948 49.3533 44.9198 49.4557 44.7767C49.5581 44.6335 49.6059 44.3949 49.6059 44.0677L49.5991 44.0745Z" fill="white"/>
<path d="M55.4696 34.789V32.3484H59.9476V34.789H55.4696ZM55.4696 47.7352V35.6412H59.9476V47.7352H55.4696Z" fill="white"/>
<path d="M61.1763 38.3682C61.1763 37.332 61.3947 36.6093 61.8316 36.2071C62.2685 35.8049 63.0398 35.6003 64.1388 35.6003H68.5417C69.6476 35.6003 70.4189 35.8049 70.8626 36.2139C71.3063 36.6229 71.5248 37.3388 71.5248 38.3682V45.0015C71.5248 46.0309 71.3063 46.7536 70.8626 47.1558C70.4189 47.5649 69.6476 47.7694 68.5417 47.7694H64.1388C63.0398 47.7694 62.2685 47.5717 61.8316 47.1694C61.3947 46.7672 61.1763 46.0446 61.1763 45.0015V38.3682ZM65.7157 38.8863V44.5107C65.7157 44.8243 65.7635 45.0561 65.8659 45.206C65.9682 45.356 66.1253 45.431 66.3369 45.431C66.5621 45.431 66.7191 45.356 66.8215 45.2129C66.9171 45.0697 66.9717 44.8311 66.9717 44.5038V38.8795C66.9717 38.5591 66.9239 38.3205 66.8215 38.1705C66.7191 38.0205 66.5621 37.9455 66.3437 37.9455C66.1253 37.9455 65.9682 38.0205 65.8727 38.1705C65.7703 38.3205 65.7225 38.5591 65.7225 38.8795L65.7157 38.8863Z" fill="white"/>
<path d="M82.863 47.7355V32.3486H92.5767V35.8528H88.8769V37.5367H92.5767V41.0408H88.8769V47.7287H82.863V47.7355Z" fill="white"/>
<path d="M93.8326 47.7354V35.6414H98.1809V36.3981C98.611 36.1118 99.041 35.9073 99.4642 35.7709C99.8875 35.6346 100.338 35.5664 100.816 35.5664C101.792 35.5664 102.536 35.8664 103.048 36.4663C103.56 37.0662 103.819 37.9457 103.819 39.091V40.4408H99.5666V39.3023C99.5666 38.9819 99.5188 38.7433 99.4165 38.5933C99.3141 38.4433 99.1571 38.3684 98.9454 38.3684C98.7202 38.3684 98.5632 38.4433 98.4608 38.5933C98.3584 38.7433 98.3106 38.9819 98.3106 39.3023V47.7354H93.8326Z" fill="white"/>
<path d="M110.359 39.3569V38.8388C110.359 38.4843 110.304 38.2321 110.202 38.0889C110.099 37.9457 109.922 37.8776 109.676 37.8776C109.451 37.8776 109.28 37.9526 109.171 38.1094C109.062 38.2662 109.007 38.5048 109.007 38.8388V39.2342H104.659V38.3616C104.659 37.3322 104.877 36.6095 105.321 36.2073C105.765 35.7983 106.536 35.5938 107.642 35.5938H111.82C112.919 35.5938 113.69 35.7983 114.134 36.2073C114.577 36.6164 114.796 37.3322 114.796 38.3616V47.7287H110.468V46.972C110.011 47.2651 109.56 47.4765 109.103 47.6128C108.652 47.7491 108.181 47.8241 107.697 47.8241C106.686 47.8241 105.922 47.5242 105.396 46.9174C104.871 46.3107 104.604 45.4312 104.604 44.2791V43.7882C104.604 43.0452 104.741 42.4793 105.021 42.0771C105.301 41.6749 105.792 41.3272 106.502 41.0204L110.359 39.3569ZM110.379 44.2246V42.343L109.765 42.6293C109.478 42.7725 109.28 42.9361 109.164 43.127C109.048 43.3178 108.987 43.5905 108.987 43.9519V44.2177C108.987 44.545 109.041 44.7904 109.157 44.9472C109.273 45.1108 109.444 45.1858 109.669 45.1858C109.915 45.1858 110.093 45.1108 110.209 44.954C110.318 44.7972 110.379 44.5518 110.379 44.2109V44.2246Z" fill="white"/>
<path d="M126.243 48.0967C126.243 49.133 126.025 49.8556 125.588 50.2647C125.151 50.6737 124.387 50.8782 123.288 50.8782H116.496V48.5671H120.701C121.103 48.5671 121.383 48.5194 121.533 48.424C121.69 48.3285 121.765 48.1513 121.765 47.899V47.0469C121.322 47.3196 120.885 47.5173 120.462 47.64C120.038 47.7627 119.581 47.824 119.11 47.824C118.107 47.824 117.335 47.5241 116.796 46.9173C116.263 46.3106 115.997 45.4311 115.997 44.279V39.0842C115.997 37.9388 116.263 37.0594 116.796 36.4595C117.328 35.8595 118.1 35.5596 119.11 35.5596C119.615 35.5596 120.1 35.6277 120.557 35.7709C121.015 35.9141 121.465 36.1322 121.922 36.4254V35.6277H126.25V48.0831L126.243 48.0967ZM121.765 39.3023C121.765 38.9751 121.718 38.7365 121.615 38.5933C121.513 38.4501 121.356 38.3683 121.131 38.3683C120.919 38.3683 120.762 38.4433 120.666 38.5933C120.564 38.7433 120.516 38.9819 120.516 39.3023V44.0745C120.516 44.3949 120.571 44.6267 120.666 44.7767C120.769 44.9267 120.933 45.0017 121.151 45.0017C121.369 45.0017 121.52 44.9267 121.622 44.7767C121.724 44.6267 121.765 44.3949 121.765 44.0745V39.3023Z" fill="white"/>
<path d="M133.213 39.3569V38.8388C133.213 38.4843 133.158 38.2321 133.056 38.0889C132.954 37.9457 132.776 37.8776 132.53 37.8776C132.305 37.8776 132.134 37.9526 132.025 38.1094C131.916 38.2662 131.861 38.5048 131.861 38.8388V39.2342H127.513V38.3616C127.513 37.3322 127.732 36.6095 128.175 36.2073C128.619 35.7983 129.39 35.5938 130.496 35.5938H134.674C135.773 35.5938 136.544 35.7983 136.988 36.2073C137.432 36.6164 137.65 37.3322 137.65 38.3616V47.7287H133.322V46.972C132.865 47.2651 132.414 47.4765 131.957 47.6128C131.506 47.7491 131.035 47.8241 130.551 47.8241C129.54 47.8241 128.776 47.5242 128.25 46.9174C127.725 46.3107 127.458 45.4312 127.458 44.2791V43.7882C127.458 43.0452 127.595 42.4793 127.875 42.0771C128.155 41.6749 128.646 41.3272 129.356 41.0204L133.213 39.3569ZM133.233 44.2246V42.343L132.619 42.6293C132.332 42.7725 132.134 42.9361 132.018 43.127C131.902 43.3178 131.841 43.5905 131.841 43.9519V44.2177C131.841 44.545 131.896 44.7904 132.012 44.9472C132.128 45.1108 132.298 45.1858 132.524 45.1858C132.769 45.1858 132.947 45.1108 133.063 44.954C133.172 44.7972 133.233 44.5518 133.233 44.2109V44.2246Z" fill="white"/>
<g clip-path="url(#clip0_109_36)">
<path fill-rule="evenodd" clip-rule="evenodd" d="M55.8724 16.3618H60.5346C60.8213 16.3618 61.0603 16.6004 61.0603 16.8868V21.543C61.0603 21.8294 60.8213 22.068 60.5346 22.068H55.8724C55.5857 22.068 55.3467 21.8294 55.3467 21.543V16.8868C55.3467 16.6004 55.5857 16.3618 55.8724 16.3618ZM55.8724 22.9542H60.5346C60.8213 22.9542 61.0603 23.1928 61.0603 23.4792V28.1354C61.0603 28.4218 60.8213 28.6604 60.5346 28.6604H55.8724C55.5857 28.6604 55.3467 28.4218 55.3467 28.1354V23.4792C55.3467 23.1928 55.5857 22.9542 55.8724 22.9542ZM48.9916 22.9542H53.6538C53.9405 22.9542 54.1795 23.1928 54.1795 23.4792V28.1354C54.1795 28.4218 53.9405 28.6604 53.6538 28.6604H48.9916C48.7049 28.6604 48.4659 28.4218 48.4659 28.1354V23.4792C48.4659 23.1928 48.7049 22.9542 48.9916 22.9542ZM48.9916 16.3618H53.6538C53.9405 16.3618 54.1795 16.6004 54.1795 16.8868V21.543C54.1795 21.8294 53.9405 22.068 53.6538 22.068H48.9916C48.7049 22.068 48.4659 21.8294 48.4659 21.543V16.8868C48.4659 16.6004 48.7049 16.3618 48.9916 16.3618Z" fill="#A7A9AC"/>
</g>
<defs>
<clipPath id="clip0_109_36">
<rect width="12.5943" height="12.2986" fill="white" transform="translate(48.4659 16.3618)"/>
</clipPath>
</defs>
</svg>
